<svg class="logo" viewBox="0 0 163 159" version="1.1" xmlns="http://www.w3.org/2000/svg" xmlns:xlink="http://www.w3.org/1999/xlink">
  <g stroke="none" stroke-width="1" fill="none" fill-rule="evenodd">
    <path d="M61.2344,78.9017 C63.6204,79.5587 65.9884,80.2327 68.3744,80.9077 C68.4614,81.9787 68.6164,84.1577 68.7034,85.2287 C71.8494,84.5547 74.9784,83.8637 78.1424,83.2577 C75.0134,87.9437 70.3974,94.1677 64.0004,90.5717 C58.6074,88.9987 61.4074,82.9297 61.2344,78.9017" id="Fill-1" fill="#231F1F"></path>
    <path d="M61.2344,78.9017 C63.6204,79.5587 65.9884,80.2327 68.3744,80.9077 C68.4614,81.9787 68.6164,84.1577 68.7034,85.2287 C71.8494,84.5547 74.9784,83.8637 78.1424,83.2577 C75.0134,87.9437 70.3974,94.1677 64.0004,90.5717 C58.6074,88.9987 61.4074,82.9297 61.2344,78.9017 M43.3414,128.6067 C56.5154,129.4537 67.6314,137.1647 79.5254,142.0057 C87.2884,145.0477 94.8944,151.1157 103.7124,149.0587 C106.4434,148.7297 107.7564,145.9987 109.3654,144.1307 C116.7634,133.6547 124.1114,123.1437 131.6664,112.7887 C137.7164,104.8007 141.1574,95.0337 142.5924,85.1967 C143.8544,68.8647 144.7704,52.5157 145.5994,36.1497 C139.4974,46.6437 133.9654,57.4477 128.1394,68.0967 C127.7614,68.9637 127.2974,69.7227 126.7604,70.3927 C123.0114,75.0797 115.7784,75.3687 110.3334,77.2587 C110.3334,77.2547 110.3344,77.2487 110.3344,77.2437 L110.3334,77.2437 C110.7984,70.9557 112.4914,64.8757 115.1324,59.1737 C110.4664,57.5687 105.5244,57.5687 100.6514,57.7407 C98.2024,61.9547 95.7214,66.1527 93.2344,70.3477 C93.0824,70.6057 92.9314,70.8647 92.7784,71.1227 C92.1184,72.2357 91.4574,73.3487 90.7964,74.4617 C90.4644,75.0177 90.1334,75.5737 89.8034,76.1307 C89.6764,76.3437 89.2644,77.2317 88.9764,77.5197 C88.9314,77.5947 88.8874,77.6697 88.8434,77.7437 C87.3654,76.0747 85.7894,74.4887 84.2044,72.9097 C83.9754,72.6867 83.7534,72.4567 83.5234,72.2347 C81.9574,70.7237 80.3944,69.1917 78.9414,67.5707 C78.3804,66.9447 77.8224,66.2847 77.2874,65.6047 C76.7054,64.9017 76.1384,64.1877 75.6014,63.4457 C74.7544,61.7777 74.0734,60.0377 73.5054,58.2597 C73.4954,58.2327 73.4854,58.2047 73.4764,58.1767 C73.3964,57.9237 73.3204,57.6697 73.2454,57.4157 C73.1804,57.2017 73.1114,56.9897 73.0504,56.7767 C73.0064,56.6197 72.9694,56.4607 72.9264,56.3037 C72.8674,56.0847 72.8104,55.8657 72.7544,55.6457 C72.6434,55.2157 72.5384,54.7847 72.4394,54.3527 C72.3924,54.1497 72.3464,53.9457 72.3024,53.7427 C72.2374,53.4437 72.1744,53.1447 72.1164,52.8447 C71.8034,51.3047 71.5394,49.7567 71.3134,48.2147 C71.2874,47.7277 71.2724,47.2397 71.2674,46.7537 C71.2534,45.4477 71.3304,44.1507 71.4424,42.8557 C71.4584,42.6357 71.4644,42.4157 71.4864,42.1957 C71.5044,42.0047 71.5304,41.8147 71.5514,41.6237 C71.5714,41.4457 71.5914,41.2677 71.6124,41.0897 C71.8064,39.4617 72.0724,37.8427 72.3714,36.2307 C72.4044,36.0517 72.4374,35.8727 72.4714,35.6937 C72.5044,35.5167 72.5364,35.3397 72.5704,35.1627 C72.6494,34.7497 72.7334,34.3367 72.8144,33.9237 C72.9134,33.4257 73.0094,32.9287 73.1094,32.4317 C73.2314,31.8267 73.3524,31.2217 73.4714,30.6167 C73.5864,30.0387 73.6944,29.4597 73.8034,28.8807 C73.8594,28.5807 73.9184,28.2817 73.9724,27.9817 C74.1294,27.1207 74.2764,26.2577 74.4054,25.3947 C68.7184,23.3197 63.0484,21.2627 57.3444,19.2407 C56.8504,20.4167 23.1314,96.4337 23.1314,96.4337 L41.9084,22.0327 C42.5884,19.1827 42.9864,17.4037 42.9894,17.1247 C43.0024,15.5897 42.4324,14.3267 40.4544,13.8807 C36.9614,12.7217 33.4484,11.5797 29.9164,10.4957 C20.9114,8.0267 9.4744,5.1327 1.7604,4.0457 C1.1734,3.9707 0.5884,3.8847 0.0004,3.8187 L0.0004,146.5517 C4.8754,139.8617 8.5404,132.3757 13.3124,125.6157 C23.3734,124.8027 33.3314,127.7767 43.3414,128.6067" id="Fill-3" fill="#231F1F"></path>
    <path d="M0,0.0003 L0,3.8193 C0.588,3.8843 1.174,3.9703 1.761,4.0453 C11.324,5.2613 20.693,7.6663 29.917,10.4953 C33.449,11.5793 36.961,12.7213 40.454,13.8813 C42.432,14.3263 43.002,15.5893 42.989,17.1253 C42.986,17.4033 42.589,19.1833 41.908,22.0323 C37.766,39.3813 23.131,96.4343 23.131,96.4343 C23.131,96.4343 56.851,20.4163 57.345,19.2403 C63.049,21.2633 68.719,23.3193 74.406,25.3943 C74.276,26.2583 74.129,27.1203 73.973,27.9813 C73.919,28.2813 73.859,28.5813 73.803,28.8803 C73.694,29.4593 73.586,30.0393 73.472,30.6173 C73.352,31.2223 73.231,31.8263 73.11,32.4313 C73.01,32.9283 72.913,33.4263 72.814,33.9233 C72.698,34.5133 72.583,35.1033 72.471,35.6933 C72.438,35.8733 72.404,36.0523 72.371,36.2303 C72.073,37.8463 71.809,39.4643 71.613,41.0903 C71.591,41.2683 71.571,41.4453 71.552,41.6233 C71.506,42.0333 71.478,42.4443 71.442,42.8553 C71.331,44.1503 71.253,45.4473 71.268,46.7533 C71.272,47.2403 71.288,47.7273 71.313,48.2153 C71.539,49.7563 71.803,51.3053 72.116,52.8453 C72.177,53.1443 72.237,53.4433 72.302,53.7423 C72.347,53.9463 72.393,54.1493 72.439,54.3523 C72.538,54.7843 72.644,55.2153 72.754,55.6453 C72.81,55.8653 72.868,56.0843 72.927,56.3043 C73.027,56.6763 73.135,57.0453 73.245,57.4153 C73.321,57.6693 73.396,57.9243 73.477,58.1763 C73.485,58.2053 73.496,58.2323 73.505,58.2603 C74.074,60.0383 74.754,61.7773 75.601,63.4463 C76.138,64.1873 76.705,64.9023 77.288,65.6043 C79.425,68.1833 81.823,70.5393 84.204,72.9103 C85.789,74.4883 87.365,76.0743 88.844,77.7433 C88.888,77.6693 88.932,77.5953 88.977,77.5203 C90.397,75.1303 91.816,72.7393 93.234,70.3473 C95.722,66.1523 98.202,61.9543 100.651,57.7413 C105.524,57.5683 110.467,57.5683 115.133,59.1743 C112.491,64.8753 110.799,70.9563 110.333,77.2433 L110.334,77.2433 C110.334,77.2483 110.333,77.2543 110.333,77.2593 C115.778,75.3683 123.012,75.0793 126.761,70.3923 C127.297,69.7223 127.762,68.9633 128.14,68.0963 C133.966,57.4473 139.497,46.6433 145.6,36.1493 C144.771,52.5163 143.854,68.8643 142.593,85.1963 C141.157,95.0333 137.717,104.8013 131.666,112.7883 C124.111,123.1443 116.764,133.6543 109.365,144.1313 C107.757,145.9983 106.443,148.7293 103.712,149.0593 C94.895,151.1153 87.288,145.0483 79.525,142.0053 C67.631,137.1643 56.515,129.4533 43.341,128.6063 C33.332,127.7763 23.374,124.8033 13.312,125.6153 C8.541,132.3753 4.875,139.8613 0,146.5523 L0,158.5663 L162.094,158.5663 L162.094,0.0003 L0,0.0003 Z" id="Fill-5" fill="#F7B318"></path>
    <path d="M64.0005,90.5716 C70.3975,94.1676 75.0135,87.9436 78.1425,83.2586 C74.9785,83.8636 71.8495,84.5546 68.7035,85.2286 C68.6165,84.1576 68.4605,81.9786 68.3745,80.9076 C65.9885,80.2326 63.6205,79.5586 61.2345,78.9016 C61.4075,82.9296 58.6065,88.9986 64.0005,90.5716" id="Fill-7" fill="#F7B318"></path>
  </g>
</svg>
