<?xml version="1.0" encoding="UTF-8"?>
<svg width="731px" height="297px" viewBox="0 0 731 297" version="1.1" xmlns="http://www.w3.org/2000/svg" xmlns:xlink="http://www.w3.org/1999/xlink">
        <polygon id="path-1" points="0 88.9785082 0 0.752002128 79.1797 0.752002128 79.1797 88.9785082"></polygon>
        <polygon id="path-3" points="0 296.496 730.602 296.496 730.602 0 0 0"></polygon>

    <g id="Page-1" stroke="none" stroke-width="1" fill="none" fill-rule="evenodd">
        <g id="rhinowash-(1)">
            <g id="Group-21" transform="translate(4.000000, 179.496000)" fill="#808080">
                <path d="M135.7969,0.2546 C144.8389,0.2546 153.8799,0.2886 162.9219,0.2196 C163.1119,29.6266 162.9739,59.0336 162.9909,88.4416 C153.9319,88.4056 144.8559,88.4236 135.7799,88.4236 C135.8149,77.0476 135.7279,65.6546 135.7799,54.2796 L115.4659,54.2796 C115.4659,65.6546 115.4489,77.0306 115.4659,88.4236 C106.4069,88.4416 97.3479,88.3896 88.2889,88.4586 C88.1859,59.0676 88.0989,29.6606 88.2549,0.2716 C97.3139,0.2546 106.3729,0.2546 115.4319,0.2546 C115.5009,10.9036 115.4489,21.5696 115.4659,32.2366 C122.2429,32.1856 129.0029,32.2366 135.7799,32.2366 C135.7799,21.5696 135.7799,10.9036 135.7969,0.2546" id="Fill-1"></path>
                <path d="M45.3457,34.4851 C39.7617,35.9021 33.8667,34.8471 28.1607,35.2621 L28.1607,19.2891 C33.8487,19.4261 39.6227,18.7171 45.2417,19.7901 C52.2257,21.3631 52.0707,32.6861 45.3457,34.4851 M63.7407,50.2861 C68.5637,47.1571 74.0607,44.1831 76.5507,38.7031 C80.4747,29.7141 80.3027,18.1821 73.8707,10.3681 C67.9237,3.0381 58.1217,0.1161 48.9587,0.2371 C32.8117,0.2551 16.6467,0.2371 0.4997,0.2891 L0.4997,88.1301 C9.7147,88.7171 18.9467,88.3201 28.1607,88.4231 L28.1607,54.6941 L36.2347,54.6941 C40.4707,65.9661 44.9127,77.1691 49.1487,88.4411 C59.3147,88.4061 69.4967,88.4061 79.6797,88.4411 C74.3377,75.7341 69.1337,62.9751 63.7407,50.2861" id="Fill-3"></path>
                <path d="M173.3984,0.2546 L200.6104,0.2546 C200.6104,5.8726 200.6104,11.4916 200.5924,17.1096 C191.4644,17.0926 182.3194,17.0926 173.1914,17.1446 C173.2774,11.5086 173.3984,5.8906 173.3984,0.2546" id="Fill-5"></path>
                <path d="M211.4326,0.2546 C220.1806,0.2546 228.9106,0.2716 237.6586,0.2546 C246.6136,14.4306 255.7596,28.5026 264.5076,42.8176 C264.6106,28.6236 264.5766,14.4476 264.5936,0.2716 C272.0786,0.2546 279.5826,0.2196 287.0856,0.3226 C286.9986,29.6956 287.0856,59.0516 287.0506,88.4236 C279.6856,88.4236 272.3216,88.4056 264.9736,88.4586 C254.8086,71.2566 242.7756,55.0746 234.1836,37.0086 C233.5436,54.1416 234.0626,71.3086 233.8726,88.4416 C226.3176,88.4056 218.7626,88.4236 211.2076,88.4236 C211.3116,59.0336 211.1386,29.6446 211.4326,0.2546" id="Fill-7"></path>
                <path d="M348.1299,52.4812 C347.4559,57.9612 346.6089,65.2922 340.6789,67.6092 C335.3539,70.1842 328.7499,66.9182 326.8829,61.4892 C323.6499,53.1212 323.7879,43.8552 324.8949,35.0892 C325.6549,29.5232 327.5909,23.1612 333.0719,20.5502 C337.6529,18.4232 343.7739,20.7232 345.6229,25.4772 C349.6509,33.8622 348.4589,43.4922 348.1299,52.4812 M363.5859,9.4682 C352.7629,-0.4198 336.5989,-1.6298 322.9589,1.8962 C313.2599,4.6972 305.2729,12.0442 300.8119,20.9822 C295.1759,31.7182 294.3989,44.4602 296.6979,56.2152 C299.4119,70.2362 309.9409,82.7522 323.8749,86.6082 C337.2899,90.1692 353.0909,88.2512 363.4469,78.3792 C372.2809,70.6172 376.5689,58.8432 377.1049,47.3122 C378.1769,33.6202 374.3389,18.6832 363.5859,9.4682" id="Fill-9"></path>
                <path d="M377.3643,0.2546 L403.1923,0.2546 C407.2553,16.5046 411.1793,32.7736 415.1043,49.0586 C419.1663,32.8076 422.9013,16.4876 427.0153,0.2546 L448.6083,0.2546 C452.9653,16.3156 456.6473,32.5666 461.4363,48.5056 C465.3953,32.4616 469.4233,16.4186 473.1923,0.3406 C480.2633,0.2196 487.3513,0.2716 494.4223,0.2366 C486.7113,29.6266 478.8973,58.9826 471.2043,88.3716 C463.5103,88.4586 455.8353,88.4056 448.1593,88.4236 C444.1313,72.3976 440.0333,56.3886 436.0923,40.3456 C432.2023,56.3546 428.4503,72.3806 424.6473,88.4056 C416.6603,88.4236 408.6563,88.4416 400.6683,88.4056 C392.9233,59.0166 385.1093,29.6446 377.3643,0.2546" id="Fill-11"></path>
                <path d="M525.1777,57.3571 C517.6747,58.9821 509.8607,51.6341 511.3647,44.0101 C513.4907,35.0891 518.4347,27.1541 523.1197,19.3751 C528.1517,27.6221 533.4067,36.1101 535.2567,45.7051 C534.9967,51.2371 530.8477,56.6301 525.1777,57.3571 M536.3457,0.2541 L510.2757,0.2541 C500.4907,29.6091 490.7047,58.9641 481.1447,88.4061 C489.3907,88.4231 497.6197,88.4751 505.8667,88.3371 C507.1637,83.1681 508.4427,77.9991 509.7737,72.8471 C518.5557,72.8811 527.3217,72.8301 536.1037,72.8991 C537.3307,78.1201 538.7657,83.2891 540.2527,88.4411 C548.6197,88.3891 557.0047,88.4581 565.3897,88.3891 C555.6217,59.0341 546.1997,29.5751 536.3457,0.2541" id="Fill-13"></path>
                <path d="M578.3042,7.9128 C588.1752,-0.4022 602.0922,-0.6452 614.2632,0.8418 C625.7082,2.3978 635.5792,10.5058 639.5552,21.3288 C632.2082,23.5068 624.8782,25.6678 617.6002,28.0018 C614.3322,21.0688 606.1032,17.4558 598.8252,20.1008 C595.1942,20.8088 594.0532,26.3768 597.5112,27.9838 C608.5062,32.5828 621.4032,32.2368 631.5862,38.8578 C642.5642,46.4658 644.7422,63.1138 637.2222,73.8148 C630.8602,82.8568 619.7612,87.2658 609.0252,87.9908 C597.3042,88.9418 584.4412,87.4208 575.1232,79.6238 C569.6082,75.1288 566.6692,68.4558 564.3012,61.9558 C572.5122,60.4168 580.7592,59.0678 588.9532,57.3738 C591.1662,62.1978 594.9522,66.8128 600.5882,67.4188 C605.4292,68.0228 612.7592,68.6458 614.7992,62.9408 C613.7962,56.9248 606.5182,56.8208 601.9022,55.5238 C592.3592,53.1738 581.5362,51.4438 574.6042,43.8198 C565.5282,33.6198 567.7232,16.2458 578.3042,7.9128" id="Fill-15"></path>
                <path d="M652.6948,0.2712 C661.7708,0.2712 670.8468,0.2542 679.9238,0.2712 L679.9238,31.7882 C686.7008,31.6322 693.4778,31.7522 700.2548,31.8222 C700.2198,21.3112 700.2368,10.7832 700.2368,0.2712 C709.0198,0.2542 717.8198,0.2542 726.6018,0.2542 L726.6018,88.4232 C717.8198,88.4232 709.0368,88.4232 700.2548,88.4412 C700.3068,76.7542 700.0988,65.0672 700.2198,53.3982 C693.4428,53.4152 686.6838,53.4152 679.9408,53.3982 C679.9058,65.0672 679.9238,76.7542 679.9238,88.4232 L652.6948,88.4232 C652.6778,59.0342 652.6948,29.6442 652.6948,0.2712" id="Fill-17"></path>
                <path d="M173.2256,23.9909 C182.3716,24.0429 191.5166,23.8869 200.6446,23.9219 C200.5586,45.4109 200.6276,66.9179 200.6106,88.4239 C191.4646,88.4239 182.3196,88.4059 173.1736,88.4409 C173.2606,66.9519 173.1566,45.4799 173.2256,23.9909" id="Fill-19"></path>
            </g>
            <path d="M136.7969,177.8463 C145.8389,177.8463 154.8799,177.8813 163.9219,177.8123 C164.1119,207.2193 163.9739,236.6263 163.9909,266.0333 C154.9319,265.9983 145.8559,266.0163 136.7799,266.0163 C136.8149,254.6403 136.7279,243.2473 136.7799,231.8713 L116.4659,231.8713 C116.4659,243.2473 116.4489,254.6223 116.4659,266.0163 C107.4069,266.0333 98.3479,265.9813 89.2889,266.0503 C89.1859,236.6603 89.0989,207.2533 89.2549,177.8643 C98.3139,177.8463 107.3729,177.8463 116.4319,177.8463 C116.5009,188.4953 116.4489,199.1623 116.4659,209.8293 C123.2429,209.7783 130.0029,209.8293 136.7799,209.8293 C136.7799,199.1623 136.7799,188.4953 136.7969,177.8463" id="Fill-22" fill="#FFFFFF"></path>
            <path d="M46.3457,212.0768 C40.7617,213.4948 34.8667,212.4398 29.1607,212.8548 L29.1607,196.8808 C34.8487,197.0188 40.6227,196.3098 46.2417,197.3828 C53.2257,198.9558 53.0707,210.2788 46.3457,212.0768 M64.7407,227.8788 C69.5637,224.7488 75.0607,221.7758 77.5507,216.2958 C81.4747,207.3058 81.3027,195.7738 74.8707,187.9598 C68.9237,180.6298 59.1217,177.7088 49.9587,177.8288 C33.8117,177.8468 17.6467,177.8288 1.4997,177.8818 L1.4997,265.7228 C10.7147,266.3098 19.9467,265.9128 29.1607,266.0158 L29.1607,232.2868 L37.2347,232.2868 C41.4707,243.5578 45.9127,254.7618 50.1487,266.0328 C60.3147,265.9988 70.4967,265.9988 80.6797,266.0328 C75.3377,253.3268 70.1337,240.5678 64.7407,227.8788" id="Fill-24" fill="#FFFFFF"></path>
            <path d="M174.3984,177.8463 L201.6104,177.8463 C201.6104,183.4653 201.6104,189.0833 201.5924,194.7023 C192.4644,194.6853 183.3194,194.6853 174.1914,194.7373 C174.2774,189.1013 174.3984,183.4823 174.3984,177.8463" id="Fill-26" fill="#FFFFFF"></path>
            <path d="M212.4326,177.8463 C221.1806,177.8463 229.9106,177.8643 238.6586,177.8463 C247.6136,192.0233 256.7596,206.0953 265.5076,220.4093 C265.6106,206.2163 265.5766,192.0393 265.5936,177.8643 C273.0786,177.8463 280.5826,177.8123 288.0856,177.9153 C287.9986,207.2873 288.0856,236.6433 288.0506,266.0163 C280.6856,266.0163 273.3216,265.9983 265.9736,266.0503 C255.8086,248.8493 243.7756,232.6673 235.1836,214.6013 C234.5436,231.7343 235.0626,248.9013 234.8726,266.0333 C227.3176,265.9983 219.7626,266.0163 212.2076,266.0163 C212.3116,236.6263 212.1386,207.2363 212.4326,177.8463" id="Fill-28" fill="#FFFFFF"></path>
            <path d="M349.1299,230.0739 C348.4559,235.5539 347.6089,242.8849 341.6789,245.2009 C336.3539,247.7769 329.7499,244.5099 327.8829,239.0809 C324.6499,230.7139 324.7879,221.4469 325.8949,212.6819 C326.6549,207.1149 328.5909,200.7539 334.0719,198.1429 C338.6529,196.0159 344.7739,198.3159 346.6229,203.0699 C350.6509,211.4549 349.4589,221.0839 349.1299,230.0739 M364.5859,187.0609 C353.7629,177.1729 337.5989,175.9629 323.9589,179.4889 C314.2599,182.2899 306.2729,189.6369 301.8119,198.5749 C296.1759,209.3109 295.3989,222.0529 297.6979,233.8079 C300.4119,247.8289 310.9409,260.3449 324.8749,264.2009 C338.2899,267.7619 354.0909,265.8439 364.4469,255.9709 C373.2809,248.2099 377.5689,236.4359 378.1049,224.9049 C379.1769,211.2129 375.3389,196.2759 364.5859,187.0609" id="Fill-30" fill="#FFFFFF"></path>
            <path d="M378.3643,177.8463 L404.1923,177.8463 C408.2553,194.0973 412.1793,210.3663 416.1043,226.6513 C420.1663,210.4003 423.9013,194.0793 428.0153,177.8463 L449.6083,177.8463 C453.9653,193.9073 457.6473,210.1583 462.4363,226.0973 C466.3953,210.0543 470.4233,194.0113 474.1923,177.9333 C481.2633,177.8123 488.3513,177.8643 495.4223,177.8283 C487.7113,207.2193 479.8973,236.5743 472.2043,265.9643 C464.5103,266.0503 456.8353,265.9983 449.1593,266.0163 C445.1313,249.9903 441.0333,233.9813 437.0923,217.9383 C433.2023,233.9473 429.4503,249.9723 425.6473,265.9983 C417.6603,266.0163 409.6563,266.0333 401.6683,265.9983 C393.9233,236.6093 386.1093,207.2363 378.3643,177.8463" id="Fill-32" fill="#FFFFFF"></path>
            <path d="M526.1777,234.9489 C518.6747,236.5739 510.8607,229.2269 512.3647,221.6029 C514.4907,212.6819 519.4347,204.7469 524.1197,196.9679 C529.1517,205.2139 534.4067,213.7019 536.2567,223.2969 C535.9967,228.8289 531.8477,234.2229 526.1777,234.9489 M537.3457,177.8459 L511.2757,177.8459 C501.4907,207.2019 491.7047,236.5569 482.1447,265.9989 C490.3907,266.0159 498.6197,266.0679 506.8667,265.9289 C508.1637,260.7609 509.4427,255.5919 510.7737,250.4389 C519.5557,250.4739 528.3217,250.4229 537.1037,250.4909 C538.3307,255.7129 539.7657,260.8819 541.2527,266.0329 C549.6197,265.9809 558.0047,266.0509 566.3897,265.9809 C556.6217,236.6259 547.1997,207.1679 537.3457,177.8459" id="Fill-34" fill="#FFFFFF"></path>
            <path d="M579.3042,185.5055 C589.1752,177.1895 603.0922,176.9475 615.2632,178.4345 C626.7082,179.9895 636.5792,188.0985 640.5552,198.9205 C633.2082,201.0995 625.8782,203.2605 618.6002,205.5945 C615.3322,198.6615 607.1032,195.0485 599.8252,197.6935 C596.1942,198.4015 595.0532,203.9685 598.5112,205.5765 C609.5062,210.1755 622.4032,209.8295 632.5862,216.4505 C643.5642,224.0575 645.7422,240.7055 638.2222,251.4075 C631.8602,260.4485 620.7612,264.8585 610.0252,265.5835 C598.3042,266.5345 585.4412,265.0135 576.1232,257.2165 C570.6082,252.7215 567.6692,246.0485 565.3012,239.5475 C573.5122,238.0095 581.7592,236.6605 589.9532,234.9665 C592.1662,239.7895 595.9522,244.4055 601.5882,245.0115 C606.4292,245.6155 613.7592,246.2375 615.7992,240.5325 C614.7962,234.5175 607.5182,234.4135 602.9022,233.1165 C593.3592,230.7655 582.5362,229.0365 575.6042,221.4125 C566.5282,211.2125 568.7232,193.8375 579.3042,185.5055" id="Fill-36" fill="#FFFFFF"></path>
            <path d="M653.6948,177.8639 C662.7708,177.8639 671.8468,177.8459 680.9238,177.8639 L680.9238,209.3809 C687.7008,209.2239 694.4778,209.3449 701.2548,209.4149 C701.2198,198.9039 701.2368,188.3749 701.2368,177.8639 C710.0198,177.8459 718.8198,177.8459 727.6018,177.8459 L727.6018,266.0159 C718.8198,266.0159 710.0368,266.0159 701.2548,266.0329 C701.3068,254.3459 701.0988,242.6599 701.2198,230.9899 C694.4428,231.0079 687.6838,231.0079 680.9408,230.9899 C680.9058,242.6599 680.9238,254.3459 680.9238,266.0159 L653.6948,266.0159 C653.6778,236.6269 653.6948,207.2359 653.6948,177.8639" id="Fill-38" fill="#FFFFFF"></path>
            <path d="M174.2256,201.5826 C183.3716,201.6356 192.5166,201.4786 201.6446,201.5146 C201.5586,223.0036 201.6276,244.5096 201.6106,266.0166 C192.4646,266.0166 183.3196,265.9986 174.1736,266.0326 C174.2606,244.5446 174.1566,223.0716 174.2256,201.5826" id="Fill-40" fill="#FFFFFF"></path>
            <path d="M524.6777,233.3717 C530.3477,232.6447 534.4967,227.2517 534.7567,221.7197 C532.9067,212.1247 527.6517,203.6357 522.6197,195.3897 C517.9347,203.1687 512.9907,211.1037 510.8647,220.0247 C509.3607,227.6487 517.1747,234.9967 524.6777,233.3717" id="Fill-42" fill="#F7B318"></path>
            <path d="M135.2969,176.2682 C144.3389,176.2682 153.3799,176.3032 162.4219,176.2342 C162.6119,205.6412 162.4739,235.0482 162.4909,264.4562 C153.4319,264.4202 144.3559,264.4382 135.2799,264.4382 C135.3139,253.0622 135.2279,241.6692 135.2799,230.2932 L114.9659,230.2932 C114.9659,241.6692 114.9489,253.0452 114.9659,264.4382 C105.9069,264.4562 96.8479,264.4042 87.7889,264.4722 C87.6859,235.0822 87.5989,205.6752 87.7549,176.2862 C96.8139,176.2682 105.8729,176.2682 114.9319,176.2682 C115.0009,186.9172 114.9489,197.5842 114.9659,208.2512 C121.7429,208.2002 128.5029,208.2512 135.2799,208.2512 C135.2799,197.5842 135.2799,186.9172 135.2969,176.2682" id="Fill-44" fill="#FFFFFF"></path>
            <g id="Group-48" transform="translate(0.000000, 175.496000)">
                <mask id="mask-2" fill="white">
                    <use xlink:href="#path-1"></use>
                </mask>
                <g id="Clip-47"></g>
                <path d="M44.8457,35.0036 C39.2617,36.4206 33.3667,35.3656 27.6607,35.7806 L27.6607,19.8066 C33.3487,19.9446 39.1227,19.2356 44.7417,20.3086 C51.7257,21.8816 51.5707,33.2046 44.8457,35.0036 M63.2407,50.8046 C68.0637,47.6756 73.5607,44.7016 76.0507,39.2216 C79.9747,30.2316 79.8027,18.7006 73.3707,10.8866 C67.4237,3.5566 57.6207,0.6346 48.4587,0.7556 C32.3117,0.7726 16.1467,0.7556 -0.0003,0.8076 L-0.0003,88.6486 C9.2147,89.2356 18.4467,88.8386 27.6607,88.9416 L27.6607,55.2126 L35.7347,55.2126 C39.9707,66.4846 44.4127,77.6876 48.6487,88.9596 C58.8147,88.9246 68.9967,88.9246 79.1797,88.9596 C73.8377,76.2526 68.6337,63.4936 63.2407,50.8046" id="Fill-46" fill="#FFFFFF" mask="url(#mask-2)"></path>
            </g>
            <path d="M172.8984,176.2682 L200.1104,176.2682 C200.1104,181.8872 200.1104,187.5052 200.0924,193.1242 C190.9644,193.1072 181.8194,193.1072 172.6904,193.1592 C172.7774,187.5232 172.8984,181.9052 172.8984,176.2682" id="Fill-49" fill="#FFFFFF"></path>
            <path d="M210.9326,176.2682 C219.6806,176.2682 228.4106,176.2862 237.1586,176.2682 C246.1136,190.4452 255.2596,204.5172 264.0076,218.8312 C264.1106,204.6382 264.0766,190.4622 264.0936,176.2862 C271.5786,176.2682 279.0826,176.2342 286.5856,176.3372 C286.4986,205.7102 286.5856,235.0662 286.5506,264.4382 C279.1856,264.4382 271.8216,264.4202 264.4736,264.4722 C254.3086,247.2712 242.2756,231.0892 233.6836,213.0232 C233.0436,230.1562 233.5626,247.3232 233.3726,264.4562 C225.8176,264.4202 218.2626,264.4382 210.7076,264.4382 C210.8116,235.0482 210.6386,205.6592 210.9326,176.2682" id="Fill-51" fill="#FFFFFF"></path>
            <path d="M347.6299,228.4957 C346.9559,233.9757 346.1089,241.3067 340.1789,243.6227 C334.8539,246.1987 328.2499,242.9317 326.3829,237.5037 C323.1499,229.1357 323.2879,219.8687 324.3949,211.1037 C325.1549,205.5377 327.0909,199.1757 332.5719,196.5647 C337.1529,194.4377 343.2739,196.7377 345.1229,201.4917 C349.1509,209.8767 347.9579,219.5067 347.6299,228.4957 M363.0859,185.4827 C352.2629,175.5947 336.0989,174.3847 322.4579,177.9107 C312.7599,180.7117 304.7729,188.0587 300.3119,196.9967 C294.6759,207.7327 293.8989,220.4747 296.1979,232.2297 C298.9119,246.2507 309.4409,258.7667 323.3749,262.6227 C336.7899,266.1837 352.5909,264.2657 362.9469,254.3937 C371.7809,246.6317 376.0689,234.8577 376.6049,223.3267 C377.6769,209.6347 373.8389,194.6977 363.0859,185.4827" id="Fill-53" fill="#FFFFFF"></path>
            <path d="M376.8643,176.2682 L402.6923,176.2682 C406.7553,192.5192 410.6793,208.7882 414.6043,225.0732 C418.6663,208.8222 422.4013,192.5022 426.5153,176.2682 L448.1083,176.2682 C452.4653,192.3302 456.1473,208.5802 460.9363,224.5202 C464.8953,208.4762 468.9233,192.4332 472.6923,176.3552 C479.7633,176.2342 486.8513,176.2862 493.9223,176.2512 C486.2113,205.6412 478.3973,234.9972 470.7043,264.3862 C463.0103,264.4722 455.3353,264.4202 447.6593,264.4382 C443.6313,248.4122 439.5333,232.4032 435.5923,216.3602 C431.7023,232.3692 427.9503,248.3952 424.1473,264.4202 C416.1603,264.4382 408.1563,264.4562 400.1683,264.4202 C392.4233,235.0312 384.6093,205.6592 376.8643,176.2682" id="Fill-55" fill="#FFFFFF"></path>
            <path d="M524.6777,233.3717 C517.1747,234.9967 509.3607,227.6487 510.8647,220.0247 C512.9907,211.1037 517.9347,203.1687 522.6197,195.3897 C527.6517,203.6357 532.9067,212.1247 534.7567,221.7197 C534.4967,227.2517 530.3477,232.6447 524.6777,233.3717 M535.8457,176.2677 L509.7757,176.2677 C499.9907,205.6237 490.2047,234.9787 480.6447,264.4207 C488.8907,264.4377 497.1197,264.4897 505.3667,264.3507 C506.6637,259.1827 507.9427,254.0137 509.2737,248.8607 C518.0557,248.8957 526.8217,248.8447 535.6037,248.9137 C536.8307,254.1347 538.2657,259.3037 539.7527,264.4557 C548.1197,264.4037 556.5047,264.4727 564.8897,264.4037 C555.1217,235.0487 545.6997,205.5897 535.8457,176.2677" id="Fill-57" fill="#FFFFFF"></path>
            <path d="M613.7632,176.8564 C625.2082,178.4124 635.0792,186.5204 639.0552,197.3424 C631.7082,199.5214 624.3782,201.6824 617.1002,204.0164 C613.8322,197.0834 605.6032,193.4704 598.3252,196.1154 C594.6942,196.8234 593.5532,202.3914 597.0112,203.9984 C608.0062,208.5974 620.9032,208.2514 631.0862,214.8724 C642.0642,222.4804 644.2422,239.1284 636.7222,249.8294 C630.3602,258.8714 619.2612,263.2804 608.5252,264.0054 C596.8042,264.9564 583.9412,263.4354 574.6232,255.6384 C569.1082,251.1434 566.1692,244.4704 563.8012,237.9704 C572.0122,236.4314 580.2592,235.0824 588.4532,233.3884 C590.6662,238.2114 594.4522,242.8274 600.0882,243.4334 C604.9292,244.0374 612.2592,244.6604 614.2992,238.9554 C613.2962,232.9394 606.0182,232.8354 601.4022,231.5384 C591.8592,229.1874 581.0362,227.4584 574.1042,219.8344 C565.0282,209.6344 567.2232,192.2604 577.8042,183.9274 C587.6752,175.6124 601.5922,175.3694 613.7632,176.8564 Z" id="Fill-59" fill="#FFFFFF"></path>
            <path d="M679.4238,176.2858 L679.4238,207.8028 C686.2008,207.6458 692.9778,207.7668 699.7548,207.8368 C699.7198,197.3258 699.7368,186.7978 699.7368,176.2858 C708.5198,176.2678 717.3198,176.2678 726.1018,176.2678 L726.1018,264.4378 C717.3198,264.4378 708.5368,264.4378 699.7548,264.4558 C699.8058,252.7678 699.5988,241.0818 699.7198,229.4128 C692.9428,229.4298 686.1828,229.4298 679.4408,229.4128 C679.4058,241.0818 679.4238,252.7678 679.4238,264.4378 L652.1948,264.4378 C652.1778,235.0488 652.1948,205.6588 652.1948,176.2858 C661.2708,176.2858 670.3468,176.2678 679.4238,176.2858 Z" id="Fill-61" fill="#FFFFFF"></path>
            <path d="M172.7256,200.0055 C181.8716,200.0575 191.0166,199.9015 200.1446,199.9365 C200.0586,221.4255 200.1276,242.9315 200.1106,264.4385 C190.9646,264.4385 181.8196,264.4205 172.6736,264.4555 C172.7606,242.9665 172.6566,221.4945 172.7256,200.0055" id="Fill-63" fill="#FFFFFF"></path>
            <path d="M61.2344,78.902 C63.6204,79.559 65.9884,80.233 68.3744,80.907 C68.4614,81.979 68.6164,84.158 68.7034,85.229 C71.8494,84.555 74.9784,83.864 78.1424,83.258 C75.0134,87.944 70.3974,94.168 64.0004,90.571 C58.6074,88.998 61.4074,82.93 61.2344,78.902" id="Fill-65" fill="#000000"></path>
            <path d="M61.2344,78.902 C63.6204,79.559 65.9884,80.233 68.3744,80.907 C68.4614,81.979 68.6164,84.158 68.7034,85.229 C71.8494,84.555 74.9784,83.864 78.1424,83.258 C75.0134,87.944 70.3974,94.168 64.0004,90.571 C58.6074,88.998 61.4074,82.93 61.2344,78.902 M43.3414,128.607 C56.5154,129.454 67.6314,137.165 79.5254,142.006 C87.2874,145.048 94.8944,151.116 103.7114,149.058 C106.4424,148.73 107.7564,145.999 109.3644,144.131 C116.7644,133.655 124.1114,123.144 131.6664,112.789 C137.7174,104.801 141.1574,95.033 142.5924,85.196 C143.8544,68.865 144.7704,52.516 145.5994,36.15 C139.4974,46.643 133.9654,57.448 128.1394,68.097 C127.7614,68.964 127.2974,69.722 126.7614,70.392 C123.0114,75.08 115.7784,75.369 110.3334,77.259 C110.3334,77.254 110.3344,77.249 110.3344,77.243 L110.3334,77.244 C110.7994,70.956 112.4914,64.876 115.1324,59.174 C110.4664,57.568 105.5244,57.568 100.6514,57.741 C98.2024,61.955 95.7214,66.153 93.2344,70.347 C93.0814,70.605 92.9314,70.865 92.7784,71.123 C92.1184,72.236 91.4574,73.349 90.7964,74.462 C90.4644,75.017 90.1344,75.574 89.8034,76.13 C89.6764,76.343 89.2654,77.232 88.9764,77.52 C88.9324,77.594 88.8874,77.67 88.8434,77.744 C87.3644,76.075 85.7894,74.489 84.2044,72.91 C83.9754,72.686 83.7534,72.457 83.5234,72.234 C81.9574,70.723 80.3944,69.192 78.9414,67.571 C78.3804,66.945 77.8224,66.285 77.2874,65.605 C76.7054,64.902 76.1384,64.187 75.6014,63.446 C74.7544,61.778 74.0734,60.038 73.5054,58.26 C73.4954,58.232 73.4854,58.205 73.4764,58.177 C73.3964,57.924 73.3204,57.67 73.2454,57.416 C73.1804,57.202 73.1114,56.99 73.0504,56.776 C73.0064,56.62 72.9694,56.461 72.9264,56.304 C72.8674,56.085 72.8104,55.866 72.7544,55.645 C72.6434,55.216 72.5384,54.785 72.4394,54.352 C72.3924,54.149 72.3464,53.946 72.3024,53.743 C72.2374,53.444 72.1744,53.145 72.1164,52.845 C71.8034,51.305 71.5394,49.757 71.3134,48.215 C71.2874,47.727 71.2724,47.24 71.2674,46.754 C71.2534,45.448 71.3304,44.15 71.4424,42.856 C71.4584,42.636 71.4644,42.416 71.4864,42.196 C71.5044,42.005 71.5304,41.814 71.5514,41.624 C71.5714,41.446 71.5914,41.268 71.6124,41.09 C71.8064,39.463 72.0724,37.843 72.3714,36.231 C72.4044,36.052 72.4374,35.873 72.4714,35.694 C72.5044,35.517 72.5364,35.339 72.5704,35.163 C72.6494,34.75 72.7334,34.337 72.8144,33.923 C72.9134,33.426 73.0094,32.929 73.1094,32.431 C73.2314,31.827 73.3524,31.222 73.4714,30.617 C73.5864,30.039 73.6944,29.46 73.8034,28.881 C73.8594,28.581 73.9184,28.282 73.9724,27.982 C74.1294,27.12 74.2764,26.258 74.4054,25.394 C68.7184,23.32 63.0484,21.263 57.3444,19.24 C56.8504,20.417 23.1314,96.433 23.1314,96.433 L41.9084,22.032 C42.5884,19.183 42.9864,17.403 42.9894,17.125 C43.0024,15.59 42.4324,14.327 40.4544,13.881 C36.9614,12.721 33.4484,11.579 29.9164,10.496 C20.9114,8.027 9.4744,5.132 1.7604,4.046 C1.1734,3.971 0.5884,3.885 0.0004,3.819 L0.0004,146.552 C4.8754,139.861 8.5404,132.376 13.3124,125.616 C23.3734,124.803 33.3314,127.777 43.3414,128.607" id="Fill-67" fill="#000000"></path>
            <path d="M0,0.0006 L0,3.8196 C0.588,3.8846 1.174,3.9706 1.761,4.0456 C11.324,5.2616 20.693,7.6666 29.917,10.4956 C33.449,11.5796 36.961,12.7216 40.454,13.8806 C42.432,14.3266 43.002,15.5896 42.989,17.1246 C42.986,17.4036 42.589,19.1836 41.908,22.0326 C37.766,39.3816 23.131,96.4336 23.131,96.4336 C23.131,96.4336 56.851,20.4166 57.345,19.2406 C63.049,21.2626 68.719,23.3196 74.406,25.3946 C74.276,26.2576 74.129,27.1206 73.973,27.9816 C73.919,28.2816 73.859,28.5816 73.803,28.8806 C73.694,29.4596 73.586,30.0386 73.472,30.6176 C73.352,31.2226 73.231,31.8266 73.11,32.4316 C73.01,32.9286 72.913,33.4266 72.814,33.9236 C72.698,34.5136 72.583,35.1036 72.471,35.6936 C72.438,35.8726 72.404,36.0526 72.371,36.2306 C72.073,37.8466 71.809,39.4646 71.613,41.0906 C71.591,41.2686 71.571,41.4456 71.552,41.6236 C71.506,42.0336 71.478,42.4446 71.442,42.8556 C71.331,44.1496 71.253,45.4476 71.268,46.7536 C71.272,47.2396 71.288,47.7276 71.313,48.2156 C71.539,49.7576 71.803,51.3056 72.116,52.8456 C72.177,53.1446 72.237,53.4436 72.302,53.7426 C72.347,53.9456 72.393,54.1486 72.439,54.3526 C72.538,54.7846 72.644,55.2156 72.754,55.6456 C72.81,55.8656 72.868,56.0846 72.927,56.3046 C73.027,56.6766 73.135,57.0466 73.245,57.4156 C73.321,57.6696 73.396,57.9246 73.477,58.1776 C73.485,58.2046 73.496,58.2316 73.505,58.2606 C74.074,60.0376 74.754,61.7776 75.601,63.4456 C76.138,64.1876 76.705,64.9016 77.288,65.6046 C79.425,68.1836 81.823,70.5386 84.204,72.9096 C85.789,74.4886 87.365,76.0746 88.844,77.7436 C88.888,77.6696 88.932,77.5946 88.976,77.5206 C90.397,75.1306 91.816,72.7386 93.234,70.3476 C95.722,66.1526 98.202,61.9546 100.651,57.7406 C105.524,57.5676 110.467,57.5676 115.133,59.1746 C112.492,64.8756 110.799,70.9556 110.333,77.2436 L110.334,77.2426 C110.334,77.2486 110.333,77.2536 110.333,77.2596 C115.779,75.3686 123.011,75.0796 126.761,70.3926 C127.297,69.7226 127.762,68.9636 128.14,68.0976 C133.965,57.4476 139.498,46.6436 145.6,36.1496 C144.77,52.5166 143.854,68.8646 142.593,85.1956 C141.158,95.0326 137.717,104.8016 131.667,112.7886 C124.111,123.1446 116.764,133.6546 109.365,144.1316 C107.757,145.9986 106.443,148.7296 103.711,149.0586 C94.895,151.1156 87.288,145.0476 79.525,142.0056 C67.631,137.1646 56.515,129.4536 43.341,128.6066 C33.332,127.7766 23.374,124.8036 13.312,125.6156 C8.541,132.3756 4.875,139.8606 0,146.5526 L0,158.5666 L162.094,158.5666 L162.094,0.0006 L0,0.0006 Z" id="Fill-69" fill="#F7B318"></path>
            <path d="M64.0005,90.5709 C70.3975,94.1679 75.0135,87.9439 78.1425,83.2589 C74.9785,83.8639 71.8495,84.5549 68.7035,85.2289 C68.6165,84.1579 68.4605,81.9789 68.3745,80.9069 C65.9885,80.2329 63.6205,79.5589 61.2345,78.9019 C61.4075,82.9299 58.6065,88.9979 64.0005,90.5709" id="Fill-71" fill="#F7B318"></path>
            <mask id="mask-4" fill="white">
                <use xlink:href="#path-3"></use>
            </mask>
            <g id="Clip-74"></g>
            <polygon id="Fill-73" fill="#F7B318" mask="url(#mask-4)" points="0 296.496 730.602 296.496 730.602 276.58 0 276.58"></polygon>
        </g>
    </g>
</svg>
